<svg xmlns="http://www.w3.org/2000/svg" xmlns:xlink="http://www.w3.org/1999/xlink" width="1080" zoomAndPan="magnify" viewBox="0 0 810 809.999993" height="1080" preserveAspectRatio="xMidYMid meet" version="1.0"><defs><clipPath id="201301e0a7"><path d="M 158.203125 139 L 651.703125 139 L 651.703125 810 L 158.203125 810 Z M 158.203125 139 " clip-rule="nonzero"/></clipPath></defs><path fill="#ffffff" d="M 416.644531 1.203125 C 378.992188 6.519531 347.792969 27.96875 334.566406 57.648438 C 311.28125 109.917969 349.882812 168.644531 416.074219 181.679688 C 429.488281 184.339844 444.425781 184.78125 457.902344 183.007812 C 489.355469 178.769531 516.4375 163.328125 532.765625 140.359375 C 541.75 127.703125 547.382812 110.171875 547.382812 94.921875 C 547.382812 84.796875 544.851562 73.28125 540.359375 62.902344 C 527.070312 32.273438 494.921875 8.921875 456.953125 2.214844 C 444.234375 0 428.160156 -0.378906 416.644531 1.203125 Z M 416.644531 1.203125 " fill-opacity="1" fill-rule="nonzero"/><g clip-path="url(#201301e0a7)"><path fill="#ffffff" d="M 184.527344 140.863281 C 178.707031 142.257812 172.882812 145.484375 168.265625 149.785156 C 157.632812 159.847656 155.292969 173.960938 162.125 186.804688 C 164.40625 191.171875 171.050781 197.628906 175.730469 200.160156 C 182.628906 203.828125 193.449219 205.347656 201.359375 203.703125 C 204.652344 203.007812 211.800781 199.90625 215.410156 197.628906 C 217.117188 196.488281 217.179688 196.550781 218.066406 197.753906 C 222.179688 203.640625 296.09375 294.003906 296.914062 294.132812 C 297.738281 294.320312 376.714844 239.960938 381.015625 236.292969 C 382.789062 234.710938 382.914062 235.34375 381.394531 238.378906 C 377.535156 246.101562 371.96875 262.109375 369.054688 274.007812 C 364.816406 291.21875 362.222656 306.789062 360.261719 326.53125 C 358.929688 340.261719 358.742188 380.003906 359.945312 392.976562 C 365.132812 448.601562 378.675781 490.050781 398.480469 510.679688 L 402.40625 514.855469 L 401.457031 517.957031 C 400.128906 522.386719 395 539.597656 389.179688 559.40625 C 386.457031 568.644531 381.332031 585.984375 377.789062 598.007812 C 374.246094 610.03125 369.121094 627.371094 366.398438 636.609375 C 363.675781 645.847656 358.550781 663.1875 355.007812 675.210938 C 351.464844 687.234375 347.730469 699.765625 346.78125 703.054688 C 339.125 729.191406 330.265625 758.933594 330.011719 759.25 C 329.949219 759.3125 327.671875 758.996094 324.886719 758.488281 C 297.296875 753.363281 265.65625 757.414062 249.203125 768.171875 C 239.457031 774.5 236.480469 781.460938 240.214844 788.992188 C 246.605469 801.835938 274.640625 810.886719 304.699219 809.808594 C 322.609375 809.113281 336.59375 806.078125 347.605469 800.316406 C 369.816406 788.863281 365.828125 771.523438 338.871094 762.160156 C 336.085938 761.210938 333.746094 760.386719 333.617188 760.261719 C 333.492188 760.199219 336.59375 749.375 340.453125 736.214844 C 344.375 722.988281 348.363281 709.507812 349.3125 706.21875 C 350.261719 702.929688 352.855469 694.195312 355.007812 686.917969 C 357.160156 679.578125 359.753906 670.90625 360.703125 667.617188 C 361.652344 664.328125 365.386719 651.796875 368.929688 639.773438 C 372.472656 627.75 377.597656 610.410156 380.320312 601.171875 C 387.21875 577.820312 397.660156 542.382812 400.695312 532.195312 C 402.089844 527.511719 403.671875 522.195312 404.175781 520.363281 L 405.125 517.132812 L 409.050781 519.222656 C 418.796875 524.601562 429.300781 524.222656 438.476562 518.148438 C 439.996094 517.132812 441.324219 516.4375 441.449219 516.566406 C 441.578125 516.691406 452.714844 540.675781 466.128906 569.910156 C 479.609375 599.082031 499.542969 642.367188 510.425781 665.972656 L 530.171875 708.941406 L 525.359375 711.089844 C 512.894531 716.46875 509.605469 722.355469 515.550781 728.492188 C 528.019531 741.339844 576.617188 745.769531 607.5 736.910156 C 620.664062 733.113281 628.320312 726.847656 626.863281 721.089844 C 625.15625 714.320312 609.839844 707.675781 590.160156 705.269531 C 574.847656 703.371094 550.671875 704.257812 538.144531 707.167969 C 535.800781 707.738281 533.652344 707.925781 533.398438 707.675781 C 533.144531 707.359375 519.917969 678.816406 504.035156 644.203125 C 488.089844 609.589844 468.15625 566.175781 459.675781 547.824219 L 444.296875 514.414062 L 448.222656 509.792969 C 467.207031 488.089844 479.546875 451.132812 485.175781 399.621094 C 486.570312 386.648438 486.757812 338.933594 485.492188 326.53125 C 481.253906 286.410156 474.039062 257.617188 462.394531 234.457031 C 458.535156 226.738281 452.460938 217.371094 448.980469 213.765625 C 447.777344 212.5 446.765625 211.296875 446.765625 211.167969 C 446.765625 210.980469 448.285156 211.359375 450.121094 211.992188 C 470.304688 219.078125 476.570312 221.421875 486.632812 225.597656 C 536.308594 246.355469 575.351562 276.097656 598.449219 310.710938 C 610.222656 328.429688 618.511719 349.121094 621.738281 368.929688 C 623.128906 377.851562 623.128906 377.789062 620.15625 377.789062 C 609.460938 377.789062 597.628906 384.875 593.261719 393.925781 C 591.679688 397.214844 591.425781 398.480469 591.425781 403.101562 C 591.363281 409.746094 593.136719 414.050781 598.007812 419.175781 C 603.894531 425.375 611.550781 428.414062 621.421875 428.414062 C 631.292969 428.414062 638.949219 425.375 644.835938 419.175781 C 649.707031 414.050781 651.480469 409.746094 651.480469 403.101562 C 651.480469 398.480469 651.226562 397.214844 649.582031 393.925781 C 646.101562 386.710938 638.253906 380.761719 629.773438 378.800781 L 626.167969 377.980469 L 625.726562 373.738281 C 624.710938 363.742188 621.042969 349.4375 616.550781 338.300781 C 594.652344 283.625 542.195312 240.722656 463.535156 213.132812 C 456.574219 210.726562 448.539062 208.003906 445.625 207.183594 C 442.777344 206.296875 438.601562 204.652344 436.386719 203.386719 C 420.441406 194.652344 403.988281 201.613281 389.558594 223.191406 L 385.699219 229.015625 L 341.71875 259.707031 C 317.546875 276.601562 297.613281 290.398438 297.421875 290.398438 C 297.230469 290.398438 283.308594 273.3125 266.414062 252.429688 C 249.519531 231.484375 232.050781 209.902344 227.621094 204.398438 L 219.523438 194.335938 L 221.863281 191.300781 C 231.800781 178.390625 230.722656 161.746094 219.269531 150.292969 C 214.902344 145.863281 208.386719 142.257812 202.183594 140.800781 C 197.375 139.660156 189.402344 139.660156 184.527344 140.863281 Z M 184.527344 140.863281 " fill-opacity="1" fill-rule="nonzero"/></g></svg>